<?xml version="1.0" encoding="utf-8"?>
<!-- Generator: Adobe Illustrator 16.0.0, SVG Export Plug-In . SVG Version: 6.00 Build 0)  -->
<!DOCTYPE svg PUBLIC "-//W3C//DTD SVG 1.1//EN" "http://www.w3.org/Graphics/SVG/1.1/DTD/svg11.dtd">
<svg version="1.1" id="Layer_1" xmlns="http://www.w3.org/2000/svg" xmlns:xlink="http://www.w3.org/1999/xlink" x="0px" y="0px"
	 width="248.732px" height="116.243px" viewBox="0 0 248.732 116.243" enable-background="new 0 0 248.732 116.243"
	 xml:space="preserve">
<g>
	<circle id="circle0"  fill="#FFFFFF" cx="173.009" cy="6.836" r="3.92"/>
	<circle id="circle1"  fill="#FFFFFF" cx="186.859" cy="6.836" r="3.92"/>
	<circle id="circle2"  fill="#FFFFFF" cx="200.709" cy="6.836" r="3.92"/>
	<circle id="circle3"  fill="#FFFFFF" cx="214.558" cy="6.836" r="3.919"/>
	<circle id="circle4"  fill="#FFFFFF" cx="228.407" cy="6.836" r="3.919"/>
	<circle id="circle5"  fill="#FFFFFF" cx="159.16" cy="20.164" r="3.92"/>
	<circle id="circle6"  fill="#FFFFFF" cx="173.009" cy="20.164" r="3.92"/>
	<circle id="circle7"  fill="#FFFFFF" cx="186.859" cy="20.164" r="3.92"/>
	<circle id="circle8"  fill="#FFFFFF" cx="200.709" cy="20.164" r="3.92"/>
	<circle id="circle9"  fill="#FFFFFF" cx="214.558" cy="20.164" r="3.919"/>
	<circle id="circle10"  fill="#FFFFFF" cx="228.407" cy="20.164" r="3.919"/>
	<circle id="circle11"  fill="#FFFFFF" cx="242.255" cy="20.164" r="3.92"/>
	<circle id="circle12"  fill="#FFFFFF" cx="159.16" cy="33.491" r="3.92"/>
	<circle id="circle13"  fill="#FFFFFF" cx="173.009" cy="33.491" r="3.92"/>
	<circle id="circle14"  fill="#FFFFFF" cx="186.859" cy="33.491" r="3.92"/>
	<circle id="circle15"  fill="#FFFFFF" cx="200.709" cy="33.491" r="3.92"/>
	<circle id="circle16"  fill="#FFFFFF" cx="214.558" cy="33.491" r="3.919"/>
	<circle id="circle17"  fill="#FFFFFF" cx="228.407" cy="33.491" r="3.919"/>
	<circle id="circle18"  fill="#FFFFFF" cx="242.255" cy="33.491" r="3.92"/>
	<circle id="circle19"  fill="#FFFFFF" cx="159.16" cy="46.818" r="3.92"/>
	<circle id="circle20"  fill="#FFFFFF" cx="173.009" cy="46.818" r="3.92"/>
	<circle id="circle21"  fill="#FFFFFF" cx="186.859" cy="46.818" r="3.92"/>
	<circle id="circle22"  fill="#FFFFFF" cx="200.709" cy="46.818" r="3.92"/>
	<circle id="circle23"  fill="#FFFFFF" cx="214.558" cy="46.818" r="3.919"/>
	<circle id="circle24"  fill="#FFFFFF" cx="228.407" cy="46.818" r="3.919"/>
	<circle id="circle25"  fill="#FFFFFF" cx="242.255" cy="46.818" r="3.92"/>
	<circle id="circle26"  fill="#FFFFFF" cx="173.009" cy="60.145" r="3.92"/>
	<circle id="circle27"  fill="#FFFFFF" cx="186.859" cy="60.145" r="3.92"/>
	<circle id="circle28"  fill="#FFFFFF" cx="200.709" cy="60.145" r="3.92"/>
	<circle id="circle29"  fill="#FFFFFF" cx="214.558" cy="60.145" r="3.919"/>
	<circle id="circle30"  fill="#FFFFFF" cx="228.407" cy="60.145" r="3.919"/>
	<circle id="circle31"  fill="#FFFFFF" cx="173.009" cy="73.472" r="3.92"/>
	<circle id="circle32"  fill="#FFFFFF" cx="186.859" cy="73.472" r="3.92"/>
	<circle id="circle33"  fill="#FFFFFF" cx="173.009" cy="86.8" r="3.92"/>
</g>
<g>
	<path fill="#FFFFFF" d="M135.746,71.206c-3.869,0-9.426,1.943-11.302,7.912c0,0-5.494,18.595-6.784,22.809l7.396,0.022
		c5.419,0,8.762-4.563,9.243-6.792h-7.491c0.947-3.205,2.405-8.053,3.829-12.715c0.736-2.403,2.478-4.35,4.491-4.35h9.028
		l-5.284,17.753c-1.654,6.715-7.2,10.581-11.869,10.581l-2.147,0.011l-1.135,0.001c-5.42,0-7.72,4.563-8.2,6.794l10.086,0.03
		c10.348,0,17.336-7.347,19.152-13.185l8.627-28.872H135.746z"/>
	<path fill="#FFFFFF" d="M106.679,70.259c-8.032,0-12.482,3.467-14.38,9.78c-1.901,6.313-2.792,9.27-3.586,11.946
		c-0.572,1.926-1.698,3.172-5.406,3.172h-14.3c0,0,10.912-10.048,16.498-16.231c3.415-3.783,0.721-7.687-2.917-7.687H62.511
		c-6.008,0-10.617,2.782-12.08,7.619c-0.966,3.196-2.921,9.736-4.117,13.728c-1.203,3.988-4.773,4.149-6.864,4.149
		c-2.095,0-4.503-1.785-3.64-4.822c0.861-3.036,2.541-8.562,3.947-13.228c1.411-4.668-1.315-7.456-6.422-7.456
		c-3.524,0-9.018,0.021-11.201,0.028c0.065-0.215,0.124-0.411,0.174-0.579c1.503-4.995-2.195-8.373-5.561-8.373l-2.338,8.934
		c-6.569,0-10.783,0-10.783,0s0.806,6.85,7.135,6.85c0.428,0,1.068,0,1.856,0L8.599,93.443c-2.061,6.934,4.599,8.545,4.599,8.545
		s4.159-14.381,6.935-23.899c6.004,0,12.495,0,12.495,0l-4.091,14.357c-1.289,4.216,2.301,10.604,10.331,10.604
		c8.032,0,12.478-3.467,14.378-9.778c1.898-6.315,2.404-8.308,3.252-10.964c0.843-2.661,1.999-4.241,6.184-4.241h14.346
		c0,0-13.237,12.632-16.7,16.509c-3.465,3.876-0.474,7.376,1.062,7.376h24.011c5.112,0,8.542-3.652,10.191-9.177
		c0.969-3.198,2.439-8.061,3.642-12.051c1.199-3.986,4.767-4.15,6.863-4.15c2.094,0,4.501,1.782,3.638,4.82
		c-0.861,3.04-2.728,9.095-4.135,13.763H98.17c0.482,2.229,2.781,6.792,8.201,6.792l4.365,0.003c0,0,4.98-16.875,6.272-21.089
		C118.298,76.648,114.706,70.259,106.679,70.259z"/>
</g>
</svg>
